<?xml version="1.0" standalone="no"?><!DOCTYPE svg PUBLIC "-//W3C//DTD SVG 1.1//EN" "http://www.w3.org/Graphics/SVG/1.1/DTD/svg11.dtd"><svg t="1734486800979" class="icon" viewBox="0 0 1024 1024" version="1.1" xmlns="http://www.w3.org/2000/svg" p-id="1296" xmlns:xlink="http://www.w3.org/1999/xlink" width="200" height="200"><path d="M308.864 129.088h406.208a126.976 126.976 0 0 1 113.6 70.4l147.2 293.888a41.6 41.6 0 0 1 4.352 18.56v256a126.912 126.912 0 0 1-126.912 126.976H170.624A126.976 126.976 0 0 1 43.712 768V512c0-6.464 1.536-12.8 4.416-18.624L195.2 199.488a126.912 126.912 0 0 1 113.6-70.4z m0 83.2a43.712 43.712 0 0 0-39.04 24.256l-0.128 0.128L152.704 470.4h718.592l-117.056-233.728v-0.128a43.648 43.648 0 0 0-39.168-24.32m181.952 341.376H126.912V768a43.712 43.712 0 0 0 43.712 43.712h682.688a43.712 43.712 0 0 0 43.712-43.712V553.6z m-181.952-341.312H308.864z m-500.672 470.4a41.6 41.6 0 0 1 41.6-41.6h0.384a41.6 41.6 0 1 1 0 83.2H256a41.6 41.6 0 0 1-41.6-41.6z m170.624 0a41.6 41.6 0 0 1 41.6-41.6h0.448a41.6 41.6 0 1 1 0 83.2h-0.448a41.6 41.6 0 0 1-41.6-41.6z" fill="#101828" p-id="1297"></path></svg>