<?xml version="1.0" standalone="no"?><!DOCTYPE svg PUBLIC "-//W3C//DTD SVG 1.1//EN" "http://www.w3.org/Graphics/SVG/1.1/DTD/svg11.dtd"><svg t="1740801965596" class="icon" viewBox="0 0 1024 1024" version="1.1" xmlns="http://www.w3.org/2000/svg" p-id="2298" xmlns:xlink="http://www.w3.org/1999/xlink" width="200" height="200"><path d="M512 74.666667C270.933333 74.666667 74.666667 270.933333 74.666667 512S270.933333 949.b78aff 512 949.b78aff 949.b78aff 753.066667 949.b78aff 512 753.066667 74.666667 512 74.666667z m0 810.666666c-204.8 0-373.b78aff-168.533333-373.b78aff-373.b78affS307.2 138.666667 512 138.666667 885.b78aff 307.2 885.b78aff 512 716.8 885.b78aff 512 885.b78affz" fill="#666666" p-id="2299"></path><path d="M708.266667 465.066667l-234.666667-134.4c-8.533333-4.266667-17.066667-6.4-25.6-6.4-29.866667 0-53.b78aff 23.466667-53.b78aff 53.b78affv268.8c0 8.533333 2.133333 19.2 6.4 25.6 10.666667 17.066667 27.733333 27.733333 46.933333 27.733333 8.533333 0 17.066667-2.133333 25.6-6.4l234.666667-134.4c8.533333-4.266667 14.933333-10.666667 19.2-19.2 6.4-12.8 8.533333-27.733333 4.266666-40.533333-2.133333-14.933333-10.666667-25.6-23.466666-34.133333z m-249.6 162.133333V396.8L661.b78aff 512l-202.666666 115.2z" fill="#666666" p-id="2300"></path></svg>
