<?xml version="1.0" standalone="no"?><!DOCTYPE svg PUBLIC "-//W3C//DTD SVG 1.1//EN" "http://www.w3.org/Graphics/SVG/1.1/DTD/svg11.dtd"><svg t="1740643477090" class="icon" viewBox="0 0 1024 1024" version="1.1" xmlns="http://www.w3.org/2000/svg" p-id="13610" xmlns:xlink="http://www.w3.org/1999/xlink" width="200" height="200"><path d="M709.632 85.333333c114.218667 0 207.104 94.848 207.104 211.328V644.266667c0 76.544-40.789333 146.944-106.282667 183.850666l-211.2 118.784a199.594667 199.594667 0 0 1-98.218666 25.941334c-33.706667 0-67.498667-8.618667-98.218667-25.941334l-211.2-118.784C126.037333 791.168 85.333333 720.682667 85.333333 644.224V296.661333C85.333333 180.181333 178.218667 85.333333 292.352 85.333333h417.28z m0.085333 88.704H292.352c-64.853333 0-117.418667 55.04-117.418667 122.624V644.266667c0 44.672 23.381333 85.546667 61.013334 106.752l211.2 118.869333c33.706667 19.029333 74.069333 19.029333 107.776 0l211.2-118.869333c37.589333-21.205333 61.013333-62.08 61.013333-106.752V296.661333c0-67.584-52.693333-122.624-117.418667-122.624z m-12.373333 192.128c17.493333 17.322667 17.493333 45.44 0 62.762667l-209.493333 207.317333a45.013333 45.013333 0 0 1-63.402667 0.085334l-119.594667-118.485334a44.074667 44.074667 0 0 1 0-62.762666 45.184 45.184 0 0 1 63.36 0l88.021334 87.04 177.706666-175.957334a45.184 45.184 0 0 1 63.402667 0z" fill="#333333" p-id="13611"></path></svg>